<?xml version="1.0" encoding="utf-8"?>
<!-- Svg Vector Icons : http://www.onlinewebfonts.com/icon -->
<!DOCTYPE svg PUBLIC "-//W3C//DTD SVG 1.1//EN" "http://www.w3.org/Graphics/SVG/1.1/DTD/svg11.dtd">
<svg version="1.1" xmlns="http://www.w3.org/2000/svg" xmlns:xlink="http://www.w3.org/1999/xlink" x="0px" y="0px" viewBox="0 0 1000 1000" enable-background="new 0 0 1000 1000" xml:space="preserve">
<metadata> Svg Vector Icons : http://www.onlinewebfonts.com/icon </metadata>
<g><path d="M500,10C229.4,10,10,229.4,10,500c0,270.6,219.4,490,490,490c270.6,0,490-219.4,490-490C990,229.4,770.6,10,500,10z M340.6,622.9h-88.6c-5.3,0-9.3-2.4-11.6-6c-2.3-3.8-2.5-8.7,0-13.6l94.1-165.6c0.1-0.2,0.1-0.3,0-0.5l-59.9-103.4c-2.5-4.9-2.8-9.8-0.5-13.6c2.3-3.7,6.7-5.5,12.1-5.5h88.6c13.6,0,20.2,8.7,24.7,16.6c0,0,60.5,105.3,60.9,105.9c-3.6,6.3-95.6,168.7-95.6,168.7C360.3,614,353.9,622.9,340.6,622.9L340.6,622.9z M759.4,213L563.3,558.8c-0.1,0.2-0.1,0.4,0,0.6L688.2,787c2.5,4.9,2.5,9.9,0.2,13.7c-2.3,3.6-6.4,5.6-11.8,5.6h-88.5c-13.6,0-20.4-9-24.7-16.8c0,0-125.5-229.7-125.8-230.3c6.3-11.1,197.1-348.6,197.1-348.6c4.7-8.5,10.5-16.8,23.7-16.8h89.5c5.3,0,9.5,2,11.8,5.6C762,203.2,761.9,208.1,759.4,213L759.4,213z"/></g>
</svg>